<?xml version="1.0" encoding="UTF-8" standalone="no"?>
<!-- Created with Inkscape (http://www.inkscape.org/) -->

<svg
   xmlns:dc="http://purl.org/dc/elements/1.1/"
   xmlns:cc="http://creativecommons.org/ns#"
   xmlns:rdf="http://www.w3.org/1999/02/22-rdf-syntax-ns#"
   xmlns:svg="http://www.w3.org/2000/svg"
   xmlns="http://www.w3.org/2000/svg"
   xmlns:sodipodi="http://sodipodi.sourceforge.net/DTD/sodipodi-0.dtd"
   xmlns:inkscape="http://www.inkscape.org/namespaces/inkscape"
   width="208.754mm"
   height="177.24899mm"
   viewBox="0 0 208.754 177.24899"
   version="1.1"
   id="svg6652"
   inkscape:version="0.92.5 (2060ec1f9f, 2020-04-08)"
   sodipodi:docname="dessin.svg">
  <defs
     id="defs6646" />
  <sodipodi:namedview
     id="base"
     pagecolor="#ffffff"
     bordercolor="#666666"
     borderopacity="1.0"
     inkscape:pageopacity="0.0"
     inkscape:pageshadow="2"
     inkscape:zoom="0.35"
     inkscape:cx="-64.285714"
     inkscape:cy="560"
     inkscape:document-units="mm"
     inkscape:current-layer="layer1"
     showgrid="false"
     inkscape:window-width="1366"
     inkscape:window-height="705"
     inkscape:window-x="-8"
     inkscape:window-y="-8"
     inkscape:window-maximized="1" />
  <metadata
     id="metadata6649">
    <rdf:RDF>
      <cc:Work
         rdf:about="">
        <dc:format>image/svg+xml</dc:format>
        <dc:type
           rdf:resource="http://purl.org/dc/dcmitype/StillImage" />
        <dc:title></dc:title>
      </cc:Work>
    </rdf:RDF>
  </metadata>
  <g
     inkscape:label="Calque 1"
     inkscape:groupmode="layer"
     id="layer1"
     transform="translate(0,-119.751)">
    <rect
       style="fill:#050505;fill-opacity:1;fill-rule:evenodd;stroke:#fbfbfb;stroke-width:5.848;stroke-miterlimit:4;stroke-dasharray:none;stroke-opacity:1"
       id="rect1181-5-9-5"
       width="202.90599"
       height="171.40109"
       x="3.9854317"
       y="124.24193" />
    <path
       style="fill:#000000;stroke:#fdfcfd;stroke-width:2.92494464;stroke-miterlimit:4;stroke-dasharray:none;stroke-opacity:1;fill-opacity:1"
       id="path1101-6-4-3"
       sodipodi:type="arc"
       sodipodi:cx="104.12682"
       sodipodi:cy="210.76868"
       sodipodi:rx="87.536301"
       sodipodi:ry="63.11412"
       sodipodi:start="1.3322828"
       sodipodi:end="4.131269"
       sodipodi:open="true"
       d="M 124.80802,272.09605 A 87.536301,63.11412 0 0 1 23.839067,235.91595 87.536301,63.11412 0 0 1 56.07286,158.01484" />
    <path
       style="fill:none;stroke:#fbfefd;stroke-width:2.92494512;stroke-miterlimit:4;stroke-dasharray:none;stroke-opacity:1"
       id="path1101-4-8-6-8"
       sodipodi:type="arc"
       sodipodi:cx="-106.29795"
       sodipodi:cy="-211.16032"
       sodipodi:rx="87.536301"
       sodipodi:ry="63.11412"
       sodipodi:start="1.3910793"
       sodipodi:end="4.131269"
       sodipodi:open="true"
       d="m -90.650735,-149.0627 a 87.536301,63.11412 0 0 1 -96.925485,-38.66278 87.536301,63.11412 0 0 1 33.22431,-76.18868"
       transform="scale(-1)" />
    <path
       inkscape:connector-curvature="0"
       id="path78-9-1-1-4"
       style="font-style:normal;font-weight:normal;font-size:10.58333302px;line-height:1.25;font-family:sans-serif;letter-spacing:0px;word-spacing:0px;fill:#800080;fill-opacity:1;stroke:#fdf7ff;stroke-width:2.40666986;stroke-opacity:1"
       d="M 93.49277,244.38087 H 47.249318 l 0.897696,-81.4205 7.924564,-4.93815 0.897688,78.43724 H 85.91293 Z"
       sodipodi:nodetypes="ccccccc" />
    <path
       inkscape:connector-curvature="0"
       id="path80-17-8-0-5"
       style="font-style:normal;font-weight:normal;font-size:10.58333302px;line-height:1.25;font-family:sans-serif;letter-spacing:0px;word-spacing:0px;fill:#800080;fill-opacity:1;stroke:#fffcfe;stroke-width:2.07234001;stroke-opacity:1"
       d="m 162.71484,257.74911 -8.36408,6.17261 -0.44936,-72.38971 -17.48881,33.85634 h -4.98452 l -17.36221,-33.85634 v 49.75683 l -7.81467,5.34958 v -63.09544 h 11.4058 l 16.77045,32.15002 16.22132,-32.15002 h 11.61676 z"
       sodipodi:nodetypes="cccccccccccccc" />
    <path
       style="fill:#fbfbfb;stroke:#fefdfe;stroke-width:0.13354319;stroke-opacity:1;fill-opacity:1"
       d="m 113.32043,265.74034 c 0.19016,-0.80457 0.70808,-1.57157 1.76061,-2.60736 1.18439,-1.1654 2.09947,-1.69584 3.13782,-1.8188 2.28763,-0.27089 4.83183,2.03337 6.06643,5.49451 0.40771,1.14297 0.28109,0.24863 -0.27654,-1.95249 -0.5813,-2.29477 -0.64536,-2.97076 -0.32523,-3.42808 0.22449,-0.32031 1.11708,-0.82918 1.45483,-0.82918 0.14526,0 0.20563,-0.13469 0.20563,-0.45772 0,-0.33956 0.0947,-0.53271 0.3671,-0.74874 0.41733,-0.33088 0.69976,-0.32524 3.63905,0.0736 2.03055,0.27543 3.46042,0.19658 4.88904,-0.26976 0.56152,-0.18336 1.13738,-0.33315 1.2797,-0.33315 0.44064,0 0.77552,0.25921 0.77552,0.59996 0,0.17809 -0.65631,1.66319 -1.45854,3.30053 -2.0407,4.16549 -3.10326,5.42549 -6.58762,7.81163 -1.32536,0.90757 -1.42568,1.10299 -0.56745,1.10476 0.51375,6.6e-4 3.08477,-0.58081 4.18925,-0.94814 0.87226,-0.29013 1.83361,-1.01073 1.51977,-1.1392 -0.16185,-0.0663 -0.24146,-0.4467 -0.0936,-0.4467 0.0404,0 0.25052,0.0916 0.46743,0.20373 1.2057,0.62351 -0.27504,1.38783 -4.23704,2.18702 -1.83402,0.37011 -2.40636,0.54193 -1.83469,0.55143 0.24637,0.004 0.24676,0.0113 0.0113,0.18866 -0.21997,0.16676 -0.16866,0.19884 0.53415,0.33164 1.88051,0.35616 4.64286,1.07857 5.22162,1.36568 0.7899,0.39185 0.90531,0.79533 0.29957,1.04636 -0.41118,0.17015 -0.7453,0.0788 -0.42814,-0.11698 0.56875,-0.35163 -0.93181,-1.17821 -3.04653,-1.67837 -2.04421,-0.4835 -2.86376,-0.59119 -3.11292,-0.40896 -0.17468,0.12753 0.0566,0.33654 1.41514,1.27917 1.93271,1.3408 3.7064,3.03641 4.5515,4.35116 0.78756,1.22521 3.15575,6.13201 3.15575,6.53854 0,0.32712 -0.34257,0.58655 -0.77541,0.58655 -0.14224,0 -0.71821,-0.1498 -1.27969,-0.33315 -1.4287,-0.46638 -2.85857,-0.5453 -4.88914,-0.26976 -3.08554,0.41846 -3.26709,0.41974 -3.66114,0.0264 -0.21996,-0.21997 -0.34523,-0.49257 -0.34523,-0.75188 0,-0.2773 -0.0657,-0.40668 -0.20561,-0.40668 -0.33768,0 -1.23039,-0.50878 -1.4548,-0.82918 -0.31805,-0.45413 -0.25768,-1.09621 0.32522,-3.46071 0.64424,-2.61384 0.6729,-3.10775 0.092,-1.58604 -0.82109,2.15093 -2.33596,4.04641 -3.814,4.77228 -1.04866,0.51501 -2.3016,0.51901 -3.38585,0.0113 -0.86036,-0.40325 -2.84705,-2.26858 -3.24528,-3.04701 -0.60356,-1.17967 -0.49853,-2.08238 0.34936,-3.00211 0.96463,-1.04645 2.5662,-1.74708 6.91166,-3.02359 1.51713,-0.44569 2.83558,-0.85324 2.92989,-0.90569 0.0943,-0.0525 -1.28784,-0.0916 -3.07149,-0.0875 -3.21812,0.007 -6.11525,-0.23204 -5.68839,-0.47094 0.10451,-0.0584 1.05814,-0.20714 2.11906,-0.33051 1.47574,-0.17129 2.49363,-0.20411 4.33268,-0.13997 1.47622,0.0516 2.32649,0.0377 2.20344,-0.0385 -0.11016,-0.0675 -1.44173,-0.48712 -2.95902,-0.93286 -4.08083,-1.19876 -5.51673,-1.81195 -6.56692,-2.80433 -0.78862,-0.74515 -1.07561,-1.45669 -0.89534,-2.2197 z"
       id="path10127-7"
       inkscape:connector-curvature="0" />
    <path
       style="fill:#fefefe;stroke-width:0.13354319;fill-opacity:1"
       d="m 100.68678,155.78619 c -0.19016,0.80459 -0.708017,1.57159 -1.760597,2.60737 -1.18436,1.16541 -2.099474,1.69584 -3.137824,1.8188 -2.287635,0.2709 -4.831823,-2.03337 -6.066441,-5.4945 -0.407698,-1.14297 -0.28108,-0.24865 0.276559,1.95248 0.581257,2.29477 0.645359,2.97076 0.324844,3.42809 -0.224486,0.32031 -1.117079,0.82916 -1.454835,0.82916 -0.145258,0 -0.205624,0.13471 -0.205624,0.45774 0,0.33956 -0.09469,0.5327 -0.367106,0.74874 -0.417361,0.33088 -0.699799,0.32521 -3.639054,-0.0736 -2.030598,-0.27542 -3.460459,-0.19656 -4.889075,0.26977 -0.561523,0.18336 -1.137379,0.33315 -1.279699,0.33315 -0.440674,0 -0.775482,-0.2592 -0.775482,-0.59997 0,-0.17808 0.656295,-1.66318 1.45846,-3.30052 2.040695,-4.16549 3.103264,-5.42548 6.587673,-7.81164 1.325319,-0.90757 1.425677,-1.10297 0.567409,-1.10474 -0.513755,-8.6e-4 -3.084779,0.58079 -4.189269,0.94814 -0.872222,0.29012 -1.833561,1.01071 -1.51969,1.13918 0.161853,0.0664 0.241466,0.44672 0.09357,0.44672 -0.04036,0 -0.250898,-0.0917 -0.46743,-0.20374 -1.205706,-0.62347 0.275047,-1.38779 4.237037,-2.187 1.834053,-0.37013 2.406371,-0.54196 1.834698,-0.55143 -0.246376,-0.004 -0.246748,-0.0113 -0.01131,-0.18864 0.219958,-0.16676 0.168652,-0.19883 -0.534173,-0.33202 -1.880498,-0.35616 -4.642847,-1.07861 -5.221618,-1.36572 -0.789894,-0.39186 -0.90531,-0.79529 -0.299191,-1.0463 0.411176,-0.17015 0.745306,-0.0789 0.428157,0.11696 -0.568774,0.35163 0.931834,1.17821 3.046522,1.67838 2.044246,0.48351 2.863799,0.59119 3.112961,0.40895 0.17469,-0.12752 -0.05661,-0.33655 -1.415182,-1.27917 -1.932715,-1.34078 -3.706409,-3.03637 -4.551508,-4.35112 -0.787559,-1.22522 -3.155746,-6.13198 -3.155746,-6.53851 0,-0.32711 0.342583,-0.58654 0.775449,-0.58654 0.142239,0 0.718215,0.14979 1.2797,0.33314 1.428656,0.46634 2.858515,0.54531 4.889108,0.26978 3.08553,-0.41849 3.267085,-0.41978 3.661128,-0.0264 0.219958,0.21997 0.345224,0.49256 0.345224,0.75187 0,0.27731 0.06565,0.40668 0.205624,0.40668 0.337675,0 1.230383,0.50878 1.454835,0.82918 0.318061,0.45411 0.257689,1.09619 -0.324844,3.46068 -0.644229,2.6138 -0.672903,3.10775 -0.09207,1.58606 0.821101,-2.15094 2.335971,-4.04643 3.81401,-4.77229 1.048652,-0.51497 2.301599,-0.51897 3.385853,-0.0113 0.86035,0.40326 2.84706,2.26859 3.245277,3.04702 0.60351,1.17968 0.49852,2.08239 -0.34937,3.00208 -0.964617,1.04645 -2.566185,1.74709 -6.911649,3.02357 -1.517129,0.44569 -2.835579,0.85324 -2.929897,0.90568 -0.09432,0.0525 1.287847,0.0917 3.071492,0.0875 3.218115,-0.007 6.115267,0.23203 5.688397,0.47088 -0.10451,0.0584 -1.05816,0.20715 -2.119059,0.33052 -1.475746,0.17128 -2.493643,0.20411 -4.332676,0.13998 -1.476224,-0.0516 -2.326491,-0.0377 -2.20346,0.0385 0.11017,0.0673 1.441747,0.48712 2.959029,0.93285 4.080821,1.19877 5.516716,1.81194 6.566916,2.80434 0.788617,0.74515 1.075627,1.45669 0.895347,2.21969 z"
       id="path10125-1"
       inkscape:connector-curvature="0" />
    <path
       style="fill:#fcfcfc;stroke-width:0.19908828;fill-opacity:1"
       d="m 54.268572,146.78843 c 0.299572,-2.60215 2.016286,-6.29916 3.625779,-7.80798 l 0.494514,-0.46363 1.014088,1.21855 c 0.557752,0.67022 1.387453,1.99871 1.843824,2.95223 0.456375,0.9535 0.855999,1.76671 0.888071,1.80708 0.0302,0.0404 0.443247,-0.25769 0.913875,-0.66275 0.914936,-0.78718 3.631819,-2.17807 4.671442,-2.39147 l 0.63038,-0.12941 0.240716,1.15693 c 0.148652,0.71459 0.203735,2.05616 0.144123,3.50897 l -0.09659,2.35207 0.818161,-0.1396 c 1.264722,-0.21581 3.982768,-0.15355 5.109512,0.11658 0.95689,0.22939 1.008575,0.27392 0.891204,0.76757 -0.232414,0.97655 -1.522902,3.50496 -2.344681,4.59349 -0.568315,0.75285 -0.737119,1.11016 -0.553304,1.17142 1.045256,0.34824 3.617897,1.83485 4.622136,2.67059 l 1.210009,1.00695 -0.845737,0.71701 c -1.136176,0.96331 -3.031465,2.11925 -4.15934,2.53688 -0.506891,0.18751 -0.952101,0.36333 -0.989374,0.39023 -0.03771,0.0263 0.292401,0.52616 0.732849,1.10942 0.809296,1.07204 2.097029,3.60245 2.328839,4.57618 0.119979,0.50477 0.07546,0.54069 -0.958513,0.77208 -0.668145,0.14941 -2.000667,0.21016 -3.470933,0.15771 l -2.386484,-0.0853 0.09431,2.29937 c 0.05773,1.40576 6.66e-4,2.74892 -0.14639,3.45622 l -0.24071,1.15694 -0.63042,-0.12941 c -1.039622,-0.21355 -3.756465,-1.60428 -4.6714,-2.39147 -0.470636,-0.40491 -0.886522,-0.70316 -0.92418,-0.66275 -0.03771,0.0404 -0.345224,0.68678 -0.683504,1.43646 -0.623245,1.38127 -2.04005,3.5193 -2.762341,4.16847 -0.383595,0.34485 -0.41423,0.33353 -1.044458,-0.3843 -2.529137,-2.88052 -3.795181,-6.95252 -3.362955,-10.81614 0.199965,-1.78734 0.547676,-2.95935 1.377757,-4.64442 0.520738,-1.0571 2.383923,-3.58794 2.532161,-3.4397 0.03398,0.0339 -0.02641,0.45555 -0.138089,0.9353 -0.592351,2.56936 -0.04376,6.38994 1.277585,8.89576 0.718741,1.36323 2.395501,3.62335 2.688096,3.62335 0.461424,0 0.761747,-4.35831 0.421472,-6.11679 l -0.162613,-0.84091 0.718888,0.56333 c 1.216242,0.95301 2.4052,1.63186 3.735042,2.13234 0.700364,0.26373 1.370667,0.47931 1.489513,0.47931 0.551488,0 -0.961079,-3.36571 -2.239229,-4.98275 l -0.825211,-1.04397 0.732735,0.13735 c 1.12697,0.21128 4.07966,0.15808 5.260205,-0.0951 l 1.059097,-0.22713 -0.463919,-0.49991 c -0.729643,-0.78635 -2.718951,-2.07096 -4.126703,-2.66489 l -1.286491,-0.54277 0.75692,-0.31617 c 0.41627,-0.17394 0.82408,-0.31617 0.906141,-0.31617 0.294669,0 3.098893,-1.94951 3.647853,-2.53612 l 0.560765,-0.59922 -1.331272,-0.25127 c -0.823555,-0.15546 -2.147059,-0.21243 -3.470222,-0.14979 l -2.138978,0.10146 0.93685,-1.23774 c 0.838308,-1.10763 2.194447,-3.88422 2.194447,-4.49313 0,-0.15432 -0.186762,-0.19054 -0.547562,-0.10527 -0.906375,0.2143 -3.670866,1.63458 -4.65164,2.38988 l -0.918779,0.70757 0.163372,-0.84528 c 0.348615,-1.80093 0.0302,-6.23705 -0.437435,-6.08059 -0.420155,0.14072 -2.048657,2.37501 -2.758685,3.78459 -1.101803,2.18753 -1.47272,4.05077 -1.352627,6.79577 0.05354,1.22118 0.160723,2.39951 0.238068,2.61848 0.07773,0.21884 -0.262971,-0.0407 -0.756506,-0.57691 -2.293748,-2.49175 -3.536588,-6.74749 -3.093834,-10.59391 z m 4.447858,10.46827 c 0.509233,-1.38153 1.373345,-2.90096 2.351326,-4.13426 0.546545,-0.68928 1.034042,-1.21295 1.08328,-1.16372 0.172043,0.17205 -1.15859,3.20076 -1.800743,4.09921 -1.024872,1.43398 -1.023481,1.47336 0.0264,0.7195 1.005748,-0.72256 3.115229,-1.75049 4.025933,-1.96174 0.909953,-0.21128 -1.568063,1.81769 -3.188643,2.61057 l -1.496345,0.73209 2.790417,0.003 c 1.687065,0.002 2.941184,0.091 3.17163,0.22524 0.571334,0.33316 -2.10789,0.73637 -4.171451,0.62804 l -1.63673,-0.0859 1.526109,0.76092 c 1.44348,0.71964 3.76571,2.52159 3.274475,2.54079 -0.426115,0.0151 -2.995623,-1.11618 -3.874376,-1.70811 -0.481044,-0.32409 -0.993144,-0.66192 -1.138058,-0.75088 -0.14488,-0.0891 0.05733,0.28485 0.44988,0.83106 0.681128,0.94817 1.684948,2.96558 2.003235,4.02592 l 0.149403,0.49768 -0.540207,-0.49768 c -0.821287,-0.75673 -2.407953,-3.22675 -2.87545,-4.47629 -0.472447,-1.26265 -0.500441,-1.8893 -0.129417,-2.89572 z"
       id="path10221-2"
       inkscape:connector-curvature="0" />
    <path
       style="fill:#fefefe;stroke-width:0.19908828;stroke:#fffaff;stroke-opacity:1;fill-opacity:1"
       d="m 158.08546,276.78145 c -0.29958,2.60216 -2.01636,6.2992 -3.62585,7.80803 l -0.49452,0.46361 -1.01409,-1.21854 c -0.55774,-0.67022 -1.38744,-1.9987 -1.84382,-2.95226 -0.45637,-0.95351 -0.85601,-1.76672 -0.88799,-1.80709 -0.0302,-0.0404 -0.44333,0.25769 -0.91396,0.66275 -0.9149,0.78718 -3.6318,2.1781 -4.67145,2.39151 l -0.63037,0.12941 -0.24071,-1.15697 c -0.14865,-0.71459 -0.20374,-2.05616 -0.14412,-3.50897 l 0.0965,-2.35208 -0.81811,0.1396 c -1.26475,0.21582 -3.98281,0.15356 -5.1095,-0.11658 -0.95694,-0.2294 -1.00863,-0.27392 -0.89125,-0.7676 0.23241,-0.97653 1.52291,-3.50497 2.34468,-4.5935 0.56831,-0.75285 0.73715,-1.11014 0.55334,-1.17141 -1.04525,-0.34824 -3.61793,-1.83484 -4.62216,-2.67058 l -1.21003,-1.00696 0.84575,-0.717 c 1.13621,-0.9633 3.03151,-2.11925 4.15937,-2.53687 0.5069,-0.18752 0.95207,-0.36335 0.98934,-0.39024 0.0377,-0.0263 -0.2924,-0.52618 -0.73282,-1.10944 -0.80931,-1.07202 -2.09705,-3.60246 -2.32887,-4.57616 -0.11997,-0.50479 -0.0754,-0.54069 0.95853,-0.7721 0.66812,-0.1494 2.00064,-0.21015 3.47096,-0.1577 l 2.38644,0.0853 -0.0943,-2.29932 c -0.0578,-1.40576 -6.8e-4,-2.74892 0.14637,-3.45622 l 0.24073,-1.15694 0.63038,0.12941 c 1.03961,0.21355 3.7565,1.60428 4.67144,2.39147 0.47063,0.40491 0.88647,0.70317 0.92413,0.66274 0.0377,-0.0404 0.34523,-0.68677 0.68351,-1.43645 0.62325,-1.38127 2.0401,-3.5193 2.76238,-4.16847 0.38359,-0.34485 0.41422,-0.33354 1.04446,0.38431 2.52913,2.88051 3.79518,6.95251 3.36294,10.81613 -0.19995,1.78731 -0.54766,2.95935 -1.37775,4.64439 -0.52078,1.0571 -2.38391,3.58797 -2.53216,3.4397 -0.034,-0.034 0.0264,-0.45551 0.1381,-0.93531 0.59234,-2.56932 0.0439,-6.38994 -1.27759,-8.89576 -0.71875,-1.36323 -2.39551,-3.62331 -2.68809,-3.62331 -0.46147,0 -0.7618,4.35828 -0.42148,6.11677 l 0.16262,0.8409 -0.7189,-0.56334 c -1.21619,-0.953 -2.40516,-1.63183 -3.735,-2.13234 -0.70036,-0.26373 -1.37068,-0.4793 -1.48951,-0.4793 -0.55149,0 0.96108,3.3657 2.23923,4.98273 l 0.82522,1.04397 -0.73275,-0.13734 c -1.12697,-0.21128 -4.07965,-0.15807 -5.2602,0.0951 l -1.0591,0.22713 0.46392,0.49995 c 0.72961,0.78631 2.71896,2.07093 4.1267,2.66486 l 1.28649,0.54276 -0.75691,0.31618 c -0.41631,0.17393 -0.82409,0.31617 -0.90615,0.31617 -0.29467,0 -3.09892,1.9495 -3.64784,2.53612 l -0.56078,0.5992 1.33128,0.25129 c 0.82355,0.15544 2.14701,0.21241 3.47022,0.14979 l 2.13898,-0.10146 -0.93685,1.23776 c -0.83836,1.1076 -2.19445,3.88418 -2.19445,4.49308 0,0.15431 0.18676,0.19053 0.54753,0.10526 0.90639,-0.21429 3.6709,-1.63453 4.65167,-2.38985 l 0.91877,-0.70756 -0.16335,0.84529 c -0.34863,1.80088 -0.0302,6.23705 0.43742,6.08059 0.42016,-0.14073 2.04866,-2.37498 2.75865,-3.78458 1.10185,-2.18753 1.47272,-4.05081 1.35267,-6.79579 -0.0536,-1.22119 -0.16073,-2.39951 -0.23807,-2.61849 -0.0776,-0.21882 0.26297,0.0408 0.7565,0.57693 2.29376,2.49175 3.53659,6.7475 3.09384,10.59387 z m -4.44793,-10.4683 c -0.50916,1.38153 -1.37335,2.90097 -2.35132,4.13425 -0.54656,0.68928 -1.03401,1.21296 -1.08329,1.16371 -0.17206,-0.17203 1.15859,-3.20075 1.80078,-4.09919 1.02483,-1.43398 1.02344,-1.47336 -0.0263,-0.7195 -1.00574,0.72255 -3.11523,1.75049 -4.0259,1.96173 -0.90998,0.21129 1.56807,-1.81767 3.18861,-2.61056 l 1.49634,-0.7321 -2.79041,-0.003 c -1.68707,-0.002 -2.94114,-0.091 -3.17162,-0.22525 -0.57135,-0.33314 2.10789,-0.73635 4.17143,-0.62804 l 1.63675,0.086 -1.52612,-0.76089 c -1.44347,-0.71968 -3.76571,-2.52159 -3.27447,-2.5408 0.42611,-0.0151 2.99562,1.11619 3.87437,1.70812 0.48106,0.32409 0.99315,0.66191 1.13806,0.75088 0.14488,0.0891 -0.0573,-0.28485 -0.44984,-0.8311 -0.68117,-0.94813 -1.68499,-2.96554 -2.00323,-4.02589 l -0.14941,-0.49769 0.54021,0.49773 c 0.82129,0.75672 2.40795,3.22672 2.87545,4.47626 0.47244,1.26265 0.50045,1.8893 0.12941,2.89576 z"
       id="path10221-4-1"
       inkscape:connector-curvature="0" />
  </g>
</svg>
