<?xml version="1.0" encoding="UTF-8" standalone="no"?>
<!-- Created with Inkscape (http://www.inkscape.org/) -->

<svg
   xmlns:dc="http://purl.org/dc/elements/1.1/"
   xmlns:cc="http://creativecommons.org/ns#"
   xmlns:rdf="http://www.w3.org/1999/02/22-rdf-syntax-ns#"
   xmlns:svg="http://www.w3.org/2000/svg"
   xmlns="http://www.w3.org/2000/svg"
   xmlns:sodipodi="http://sodipodi.sourceforge.net/DTD/sodipodi-0.dtd"
   xmlns:inkscape="http://www.inkscape.org/namespaces/inkscape"
   width="210mm"
   height="297mm"
   viewBox="0 0 210 297"
   version="1.1"
   id="svg2901"
   inkscape:version="0.92.5 (2060ec1f9f, 2020-04-08)"
   sodipodi:docname="dessin logo michele 7.svg">
  <defs
     id="defs2895" />
  <sodipodi:namedview
     id="base"
     pagecolor="#ffffff"
     bordercolor="#666666"
     borderopacity="1.0"
     inkscape:pageopacity="0.0"
     inkscape:pageshadow="2"
     inkscape:zoom="0.35"
     inkscape:cx="400"
     inkscape:cy="560"
     inkscape:document-units="mm"
     inkscape:current-layer="layer1"
     showgrid="false"
     inkscape:window-width="1366"
     inkscape:window-height="705"
     inkscape:window-x="-8"
     inkscape:window-y="-8"
     inkscape:window-maximized="1" />
  <metadata
     id="metadata2898">
    <rdf:RDF>
      <cc:Work
         rdf:about="">
        <dc:format>image/svg+xml</dc:format>
        <dc:type
           rdf:resource="http://purl.org/dc/dcmitype/StillImage" />
        <dc:title></dc:title>
      </cc:Work>
    </rdf:RDF>
  </metadata>
  <g
     inkscape:label="Calque 1"
     inkscape:groupmode="layer"
     id="layer1">
    <rect
       style="fill:url(#meshgradient10455);fill-opacity:1;fill-rule:evenodd;stroke:#14000d;stroke-width:1.55000019;stroke-miterlimit:4;stroke-dasharray:none;stroke-opacity:1"
       id="rect1181-5-9"
       width="53.779556"
       height="45.429287"
       x="22.247128"
       y="91.344879" />
    <path
       style="fill:none;stroke:#030003;stroke-width:0.77524686;stroke-miterlimit:4;stroke-dasharray:none;stroke-opacity:1"
       id="path1101-6-4"
       sodipodi:type="arc"
       sodipodi:cx="48.78973"
       sodipodi:cy="114.27921"
       sodipodi:rx="23.201204"
       sodipodi:ry="16.728189"
       sodipodi:start="1.3322828"
       sodipodi:end="4.131269"
       sodipodi:open="true"
       d="m 54.271212,130.53383 a 23.201204,16.728189 0 0 1 -26.761484,-9.58942 23.201204,16.728189 0 0 1 8.543459,-20.64743" />
    <path
       style="fill:none;stroke:#030a09;stroke-width:0.77524698;stroke-miterlimit:4;stroke-dasharray:none;stroke-opacity:1"
       id="path1101-4-8-6"
       sodipodi:type="arc"
       sodipodi:cx="-49.3652"
       sodipodi:cy="-114.38305"
       sodipodi:rx="23.201204"
       sodipodi:ry="16.728189"
       sodipodi:start="1.3910793"
       sodipodi:end="4.131269"
       sodipodi:open="true"
       d="m -45.217958,-97.924279 a 23.201204,16.728189 0 0 1 -25.689777,-10.247441 23.201204,16.728189 0 0 1 8.805992,-20.19356"
       transform="scale(-1)" />
    <path
       inkscape:connector-curvature="0"
       id="path78-9-1-1"
       style="font-style:normal;font-weight:normal;font-size:10.58333302px;line-height:1.25;font-family:sans-serif;letter-spacing:0px;word-spacing:0px;fill:#800080;fill-opacity:1;stroke:#040005;stroke-width:0.63787985;stroke-opacity:1"
       d="m 45.973531,123.18769 h -12.25667 l 0.23793,-21.58016 2.10038,-1.30884 0.23793,20.78947 h 7.67142 z"
       sodipodi:nodetypes="ccccccc" />
    <path
       inkscape:connector-curvature="0"
       id="path80-17-8-0"
       style="font-style:normal;font-weight:normal;font-size:10.58333302px;line-height:1.25;font-family:sans-serif;letter-spacing:0px;word-spacing:0px;fill:#800080;fill-opacity:1;stroke:#14000d;stroke-width:0.54926682;stroke-opacity:1"
       d="m 64.320601,126.73088 -2.216861,1.63602 -0.1191,-19.18656 -4.635349,8.97347 H 56.02816 l -4.6018,-8.97347 v 13.18782 l -2.071259,1.41788 v -16.72317 h 3.023079 l 4.44495,8.52123 4.29941,-8.52123 h 3.07898 z"
       sodipodi:nodetypes="cccccccccccccc" />
    <path
       style="fill:#000000;stroke:#14000d;stroke-width:0.03539518;stroke-opacity:1"
       d="m 51.228791,128.84891 c 0.0504,-0.21325 0.187661,-0.41653 0.46664,-0.69106 0.31392,-0.30889 0.556461,-0.44948 0.83167,-0.48207 0.60633,-0.0718 1.28066,0.53894 1.607889,1.45629 0.108061,0.30294 0.0745,0.0659 -0.0733,-0.5175 -0.154059,-0.60821 -0.171048,-0.78738 -0.0862,-0.90859 0.0595,-0.0849 0.296079,-0.21977 0.385601,-0.21977 0.0385,0 0.0545,-0.0357 0.0545,-0.12132 0,-0.09 0.02511,-0.14119 0.0973,-0.19845 0.11062,-0.0877 0.185479,-0.0862 0.964521,0.0195 0.538199,0.073 0.917178,0.0521 1.295839,-0.0715 0.14882,-0.0486 0.30145,-0.0883 0.33918,-0.0883 0.116789,0 0.205531,0.0687 0.205531,0.15902 0,0.0472 -0.173951,0.44082 -0.386562,0.87479 -0.54088,1.10404 -0.82251,1.438 -1.746038,2.07045 -0.351272,0.24054 -0.37787,0.29233 -0.150392,0.2928 0.13617,2.7e-4 0.81761,-0.15394 1.11035,-0.25129 0.231191,-0.0769 0.485982,-0.26789 0.402791,-0.30194 -0.0429,-0.0176 -0.064,-0.1184 -0.02479,-0.1184 0.01069,0 0.0664,0.0243 0.123889,0.054 0.319569,0.16525 -0.0729,0.36783 -1.123011,0.57965 -0.486109,0.0981 -0.6378,0.14364 -0.486278,0.14616 0.0653,0.001 0.0654,0.003 0.003,0.05 -0.0583,0.0442 -0.0447,0.0527 0.141581,0.0879 0.498419,0.0944 1.230569,0.28587 1.383969,0.36197 0.20936,0.10386 0.239951,0.2108 0.0794,0.27733 -0.108982,0.0451 -0.197541,0.0209 -0.11348,-0.031 0.150749,-0.0932 -0.246981,-0.31228 -0.807471,-0.44485 -0.541819,-0.12815 -0.75904,-0.15669 -0.82508,-0.10839 -0.0463,0.0338 0.015,0.0892 0.37509,0.33904 0.512259,0.35536 0.982371,0.80477 1.206359,1.15324 0.208741,0.32474 0.83642,1.62525 0.83642,1.733 0,0.0867 -0.0908,0.15546 -0.205529,0.15546 -0.0377,0 -0.190359,-0.0397 -0.33918,-0.0883 -0.378661,-0.12361 -0.757639,-0.14453 -1.295841,-0.0715 -0.817809,0.11091 -0.865929,0.11125 -0.97037,0.007 -0.0583,-0.0583 -0.0915,-0.13055 -0.0915,-0.19928 0,-0.0735 -0.01741,-0.10779 -0.0545,-0.10779 -0.0895,0 -0.32611,-0.13485 -0.385599,-0.21977 -0.0843,-0.12035 -0.0683,-0.29053 0.0862,-0.91723 0.170752,-0.69278 0.17835,-0.8237 0.02439,-0.42038 -0.217631,0.5701 -0.619139,1.07249 -1.010889,1.26487 -0.277942,0.13649 -0.610031,0.13755 -0.897411,0.003 -0.228028,-0.10688 -0.754599,-0.60127 -0.86015,-0.80759 -0.159959,-0.31267 -0.13213,-0.55193 0.0926,-0.79568 0.255672,-0.27736 0.680162,-0.46306 1.831912,-0.80139 0.402108,-0.11813 0.751559,-0.22615 0.77656,-0.24005 0.025,-0.0139 -0.341339,-0.0243 -0.814091,-0.0232 -0.852948,0.002 -1.62083,-0.0615 -1.507689,-0.12482 0.0277,-0.0155 0.280459,-0.0549 0.56165,-0.0876 0.391139,-0.0454 0.660929,-0.0541 1.14836,-0.0371 0.391269,0.0137 0.61663,0.01 0.58402,-0.0102 -0.0292,-0.0179 -0.382129,-0.12911 -0.78428,-0.24725 -1.081612,-0.31773 -1.462191,-0.48025 -1.740541,-0.74328 -0.20902,-0.1975 -0.285091,-0.3861 -0.23731,-0.58832 z"
       id="path10127"
       inkscape:connector-curvature="0" />
    <path
       style="fill:#000000;stroke-width:0.03539518"
       d="m 47.880281,99.706043 c -0.0504,0.21325 -0.18766,0.416537 -0.46664,0.691067 -0.31392,0.30889 -0.55646,0.44948 -0.83167,0.48207 -0.60633,0.0718 -1.28066,-0.53894 -1.60789,-1.456297 -0.10806,-0.30294 -0.0745,-0.0659 0.0733,0.5175 0.15406,0.608217 0.17105,0.787387 0.0861,0.908597 -0.0595,0.0849 -0.29608,0.21977 -0.3856,0.21977 -0.0385,0 -0.0545,0.0357 -0.0545,0.12132 0,0.09 -0.0251,0.14119 -0.0973,0.19845 -0.11062,0.0877 -0.18548,0.0862 -0.96452,-0.0195 -0.5382,-0.073 -0.91718,-0.0521 -1.29584,0.0715 -0.14882,0.0486 -0.30145,0.0883 -0.33918,0.0883 -0.11679,0 -0.20553,-0.0687 -0.20553,-0.15902 0,-0.0472 0.17395,-0.44082 0.38656,-0.87479 0.54088,-1.104047 0.82251,-1.438007 1.74604,-2.070447 0.35127,-0.24055 0.37787,-0.29234 0.15039,-0.29281 -0.13617,-2.91e-4 -0.81761,0.15394 -1.11035,0.2513 -0.23119,0.0769 -0.48598,0.26789 -0.40279,0.30194 0.0429,0.0176 0.064,0.1184 0.0248,0.1184 -0.0107,0 -0.0665,-0.0243 -0.12389,-0.054 -0.31957,-0.16526 0.0729,-0.367839 1.12301,-0.57966 0.48611,-0.0981 0.6378,-0.14364 0.48628,-0.14616 -0.0653,-0.001 -0.0654,-0.003 -0.003,-0.05 0.0583,-0.0442 0.0447,-0.0527 -0.14158,-0.088 -0.49842,-0.0944 -1.23057,-0.28587 -1.38397,-0.36197 -0.20936,-0.10386 -0.23995,-0.2108 -0.0793,-0.27733 0.10898,-0.0451 0.19754,-0.0209 0.11348,0.031 -0.15075,0.0932 0.24698,0.31228 0.80747,0.44485 0.54182,0.12815 0.75904,0.15669 0.82508,0.10839 0.0463,-0.0338 -0.015,-0.0892 -0.37509,-0.33904 -0.51226,-0.35537 -0.98237,-0.80478 -1.20636,-1.15325 -0.20874,-0.32474 -0.83642,-1.62526 -0.83642,-1.73301 0,-0.0867 0.0908,-0.15546 0.20553,-0.15546 0.0377,0 0.19036,0.0397 0.33918,0.0883 0.37866,0.12361 0.75764,0.144531 1.29584,0.0715 0.81781,-0.11091 0.86593,-0.11125 0.97037,-0.007 0.0583,0.0583 0.0915,0.13055 0.0915,0.19928 0,0.0735 0.0174,0.10779 0.0545,0.10779 0.0895,0 0.32611,0.13485 0.3856,0.21977 0.0843,0.12036 0.0683,0.29054 -0.0861,0.91724 -0.17075,0.69278 -0.17835,0.8237 -0.0244,0.42038 0.21763,-0.5701 0.61914,-1.07249 1.01089,-1.26488 0.27794,-0.13649 0.61003,-0.13755 0.89741,-0.003 0.22803,0.10688 0.7546,0.60128 0.86015,0.8076 0.159962,0.31267 0.13213,0.55193 -0.0926,0.79569 -0.25567,0.27736 -0.68016,0.46306 -1.83191,0.80139 -0.40211,0.11813 -0.75156,0.22615 -0.77656,0.24005 -0.025,0.0139 0.34134,0.0243 0.81409,0.0232 0.85295,-0.002 1.62083,0.0615 1.50769,0.12482 -0.0277,0.0155 -0.28046,0.0549 -0.56165,0.0876 -0.39114,0.0454 -0.66093,0.0541 -1.14836,0.0371 -0.39127,-0.0137 -0.61663,-0.01 -0.58402,0.0102 0.0292,0.0178 0.38213,0.12911 0.78428,0.24725 1.08161,0.31774 1.46219,0.48026 1.74054,0.74329 0.20902,0.1975 0.28509,0.38608 0.23731,0.58832 z"
       id="path10125"
       inkscape:connector-curvature="0" />
    <path
       style="fill:#000000;stroke-width:0.05276769"
       d="m 35.577281,97.321213 c 0.0794,-0.68969 0.53442,-1.66957 0.96101,-2.06948 l 0.13107,-0.12288 0.26878,0.32297 c 0.14783,0.17764 0.36774,0.52975 0.4887,0.78248 0.12096,0.25272 0.22688,0.46826 0.23537,0.47896 0.008,0.0107 0.11749,-0.0683 0.24223,-0.17566 0.2425,-0.20864 0.9626,-0.57729 1.23815,-0.63385 l 0.16708,-0.0343 0.0638,0.30664 c 0.0394,0.1894 0.054,0.54498 0.0382,0.93004 l -0.0256,0.62341 0.21685,-0.037 c 0.33521,-0.0572 1.05562,-0.0407 1.35426,0.0309 0.25362,0.0608 0.26732,0.0726 0.23621,0.20344 -0.0616,0.25883 -0.40364,0.92898 -0.62145,1.21749 -0.15063,0.19954 -0.19537,0.29424 -0.14665,0.31048 0.27704,0.0923 0.95891,0.48632 1.22508,0.707827 l 0.32071,0.26689 -0.22416,0.19004 c -0.30114,0.25532 -0.80348,0.5617 -1.10242,0.67239 -0.13435,0.0497 -0.25235,0.0963 -0.26223,0.10343 -0.01,0.007 0.0775,0.13946 0.19424,0.29405 0.2145,0.28414 0.55581,0.95482 0.61725,1.2129 0.0318,0.13379 0.02,0.14331 -0.25405,0.20464 -0.17709,0.0396 -0.53027,0.0557 -0.91996,0.0418 l -0.63253,-0.0226 0.025,0.60943 c 0.0153,0.37259 2.1e-4,0.72859 -0.0388,0.91606 l -0.0638,0.30664 -0.16708,-0.0343 c -0.27555,-0.0566 -0.99565,-0.42521 -1.23815,-0.63385 -0.12474,-0.10732 -0.23496,-0.18637 -0.24494,-0.17566 -0.01,0.0107 -0.0915,0.18203 -0.18116,0.38073 -0.16519,0.3661 -0.54072,0.93278 -0.73216,1.10484 -0.10167,0.0914 -0.10979,0.0884 -0.27683,-0.10186 -0.67034,-0.76347 -1.0059,-1.84274 -0.89134,-2.86678 0.053,-0.47372 0.14516,-0.78437 0.36517,-1.23098 0.13803,-0.28018 0.63185,-0.95098 0.67114,-0.91168 0.009,0.009 -0.007,0.12073 -0.0366,0.2479 -0.157,0.68099 -0.0116,1.69363 0.33862,2.35779 0.1905,0.36132 0.63492,0.96035 0.71247,0.96035 0.12231,0 0.20191,-1.15515 0.11171,-1.62123 l -0.0431,-0.22288 0.19054,0.14931 c 0.32235,0.25259 0.63748,0.43251 0.98995,0.56517 0.18563,0.0699 0.36329,0.12704 0.39479,0.12704 0.14617,0 -0.25473,-0.89207 -0.5935,-1.32066 l -0.21872,-0.2767 0.19421,0.0364 c 0.2987,0.056 1.0813,0.0419 1.3942,-0.0252 l 0.28071,-0.0602 -0.12296,-0.13251 c -0.19338,-0.20841 -0.72065,-0.54889 -1.09377,-0.70631 l -0.34098,-0.14386 0.20062,-0.0838 c 0.11034,-0.0461 0.21842,-0.0838 0.24017,-0.0838 0.0781,0 0.82136,-0.516707 0.96685,-0.672187 l 0.148631,-0.15882 -0.35285,-0.0666 c -0.21828,-0.0412 -0.56906,-0.0563 -0.91977,-0.0397 l -0.56693,0.0269 0.24831,-0.32806 c 0.2222,-0.29357 0.58163,-1.0295 0.58163,-1.19089 0,-0.0409 -0.0495,-0.0505 -0.14512,-0.0279 -0.24024,0.0568 -0.97296,0.43324 -1.23291,0.63343 l -0.24352,0.18754 0.0433,-0.22404 c 0.0924,-0.47733 0.008,-1.65311 -0.11594,-1.61164 -0.11136,0.0373 -0.54299,0.62949 -0.73117,1.00309 -0.29204,0.5798 -0.39034,1.07365 -0.35852,1.8012 0.0142,0.32367 0.0426,0.635977 0.0631,0.694017 0.0206,0.058 -0.0697,-0.0108 -0.20051,-0.15291 -0.60795,-0.660427 -0.93736,-1.788397 -0.82001,-2.807877 z m 1.1789,2.774577 c 0.13496,-0.366167 0.364,-0.768887 0.62321,-1.095767 0.14486,-0.18269 0.27407,-0.32149 0.28712,-0.30844 0.0456,0.0456 -0.30708,0.84835 -0.47728,1.08648 -0.27164,0.380067 -0.27127,0.390507 0.007,0.1907 0.266571,-0.19151 0.825681,-0.46396 1.06705,-0.51995 0.24119,-0.056 -0.415609,0.48177 -0.84513,0.691917 l -0.3966,0.19404 0.73959,8.5e-4 c 0.447151,5.3e-4 0.77954,0.0241 0.84063,0.0597 0.15143,0.0883 -0.55869,0.19518 -1.10563,0.16647 l -0.43381,-0.0228 0.404491,0.20167 c 0.382589,0.19075 0.998089,0.66834 0.86789,0.67343 -0.11294,0.004 -0.793981,-0.29584 -1.02689,-0.45273 -0.127501,-0.0859 -0.26323,-0.17544 -0.301641,-0.19902 -0.0384,-0.0236 0.0152,0.0755 0.11923,0.22028 0.18054,0.2513 0.4466,0.78601 0.53095,1.06705 l 0.0396,0.13192 -0.14318,-0.13192 c -0.217681,-0.20058 -0.638221,-0.85524 -0.762131,-1.18643 -0.12522,-0.33466 -0.13264,-0.50075 -0.0343,-0.76751 z"
       id="path10221"
       inkscape:connector-curvature="0" />
    <path
       style="fill:#000000;stroke-width:0.05276769"
       d="m 63.093602,131.77531 c -0.0794,0.68968 -0.534422,1.66956 -0.961012,2.06947 l -0.131069,0.12287 -0.26878,-0.32297 c -0.147831,-0.17763 -0.367739,-0.52974 -0.488701,-0.78247 -0.12096,-0.25272 -0.226878,-0.46826 -0.235368,-0.47896 -0.008,-0.0107 -0.117491,0.0683 -0.242232,0.17566 -0.242498,0.20864 -0.962599,0.57729 -1.238149,0.63385 l -0.167079,0.0343 -0.0638,-0.30664 c -0.0394,-0.1894 -0.054,-0.54498 -0.0382,-0.93004 l 0.02561,-0.6234 -0.21685,0.037 c -0.335211,0.0572 -1.055619,0.0407 -1.354259,-0.0309 -0.253622,-0.0608 -0.267322,-0.0726 -0.23621,-0.20344 0.0616,-0.25883 0.403638,-0.92898 0.621448,-1.21749 0.15063,-0.19954 0.195371,-0.29424 0.146651,-0.31048 -0.27704,-0.0923 -0.958911,-0.48632 -1.225079,-0.70783 l -0.320712,-0.26689 0.22416,-0.19004 c 0.301141,-0.25532 0.803482,-0.56169 1.102421,-0.67238 0.13435,-0.0497 0.252349,-0.0963 0.262231,-0.10343 0.01,-0.007 -0.0775,-0.13946 -0.194241,-0.29405 -0.2145,-0.28414 -0.55581,-0.95481 -0.617249,-1.21289 -0.0318,-0.13379 -0.02,-0.14331 0.25405,-0.20464 0.177089,-0.0396 0.53027,-0.0557 0.919959,-0.0418 l 0.632529,0.0226 -0.025,-0.60943 c -0.01529,-0.37259 -2.12e-4,-0.72858 0.0388,-0.91605 l 0.0638,-0.30664 0.167079,0.0343 c 0.27555,0.0566 0.995651,0.42521 1.238149,0.63385 0.124741,0.10731 0.234961,0.18636 0.244941,0.17565 0.01,-0.0107 0.0915,-0.18202 0.18116,-0.38072 0.16519,-0.3661 0.540719,-0.93278 0.732161,-1.10484 0.101668,-0.0914 0.109789,-0.0884 0.276828,0.10186 0.67034,0.76347 1.005901,1.84273 0.891341,2.86677 -0.053,0.47371 -0.145161,0.78436 -0.36517,1.23097 -0.13803,0.28018 -0.631851,0.95097 -0.671139,0.91167 -0.009,-0.009 0.007,-0.12072 0.0366,-0.24789 0.156998,-0.68099 0.01159,-1.69363 -0.338622,-2.35778 -0.1905,-0.36132 -0.63492,-0.96035 -0.71247,-0.96035 -0.122309,0 -0.201909,1.15515 -0.11171,1.62122 l 0.0431,0.22288 -0.19054,-0.14931 c -0.322349,-0.25259 -0.637481,-0.4325 -0.989951,-0.56516 -0.185629,-0.0699 -0.363289,-0.12704 -0.39479,-0.12704 -0.14617,0 0.25473,0.89207 0.5935,1.32065 l 0.21872,0.2767 -0.194209,-0.0364 c -0.298699,-0.056 -1.0813,-0.0419 -1.394201,0.0252 l -0.28071,0.0602 0.12296,0.13251 c 0.193381,0.20841 0.720651,0.54889 1.093772,0.70631 l 0.340979,0.14385 -0.200621,0.0838 c -0.110339,0.0461 -0.218418,0.0838 -0.24017,0.0838 -0.0781,0 -0.821359,0.51672 -0.966848,0.67219 l -0.148632,0.15883 0.352851,0.0666 c 0.218281,0.0412 0.56906,0.0563 0.919771,0.0397 l 0.566928,-0.0269 -0.248309,0.32806 c -0.2222,0.29356 -0.581631,1.02949 -0.581631,1.19088 0,0.0409 0.0495,0.0505 0.145121,0.0279 0.240239,-0.0568 0.97296,-0.43324 1.232911,-0.63343 l 0.24352,-0.18754 -0.0433,0.22404 c -0.0924,0.47733 -0.008,1.6531 0.11594,1.61163 0.111361,-0.0373 0.542992,-0.62948 0.731171,-1.00308 0.292039,-0.5798 0.39034,-1.07365 0.358519,-1.8012 -0.01421,-0.32367 -0.0426,-0.63598 -0.0631,-0.69402 -0.02061,-0.058 0.0697,0.0108 0.200509,0.15291 0.607949,0.66043 0.93736,1.7884 0.82001,2.80787 z M 61.9147,129.00073 c -0.134958,0.36617 -0.364,0.7689 -0.62321,1.09578 -0.144859,0.18268 -0.274069,0.32148 -0.287118,0.30843 -0.0456,-0.0456 0.307078,-0.84835 0.477279,-1.08648 0.27164,-0.38007 0.27127,-0.39051 -0.007,-0.1907 -0.26657,0.19151 -0.82568,0.46396 -1.067049,0.51996 -0.241191,0.056 0.41561,-0.48178 0.84513,-0.69193 l 0.396599,-0.19404 -0.739589,-7.9e-4 c -0.447151,-5.3e-4 -0.77954,-0.0241 -0.840632,-0.0597 -0.151429,-0.0883 0.558692,-0.19518 1.10563,-0.16647 l 0.433811,0.0228 -0.404489,-0.20167 c -0.382591,-0.19075 -0.998091,-0.66833 -0.867889,-0.67342 0.112937,-0.004 0.793977,0.29584 1.026887,0.45272 0.1275,0.0859 0.263232,0.17544 0.301641,0.19902 0.0384,0.0236 -0.01519,-0.0755 -0.119229,-0.22028 -0.180541,-0.25129 -0.446601,-0.786 -0.53095,-1.06704 l -0.0396,-0.13191 0.143179,0.13192 c 0.217681,0.20057 0.63822,0.85523 0.76213,1.18641 0.125219,0.33466 0.132641,0.50075 0.0343,0.76751 z"
       id="path10221-4"
       inkscape:connector-curvature="0" />
  </g>
</svg>
